<svg id="Group_27693" data-name="Group 27693" xmlns="http://www.w3.org/2000/svg" width="24" height="22.123" viewBox="0 0 24 22.123">
  <defs>
    <style>
      .cls-1 {
        fill: #084266;
      }
    </style>
  </defs>
  <path id="Path_11835" data-name="Path 11835" class="cls-1" d="M23.9,20.3l-4-10.7a2.031,2.031,0,0,0-1.7-1.1h0a2.219,2.219,0,0,0-1.8,1.2l-4,10.6a1.38,1.38,0,0,0,.8,1.7c.1,0,.3.1.4.1h0a1.3,1.3,0,0,0,1.2-.8l.9-2.4h4.8l.9,2.4a1.206,1.206,0,0,0,1.2.8h.1a1.05,1.05,0,0,0,.9-.5,1.209,1.209,0,0,0,.3-1A.188.188,0,0,0,23.9,20.3Zm-4.4-4.1H16.8l1.3-3.6Z" transform="translate(0.025 0.023)"/>
  <path id="Path_11836" data-name="Path 11836" class="cls-1" d="M13.2,15.1h0c.2-.9,0-1.3-.3-1.4l-2.1-2.1a19.839,19.839,0,0,0,3.8-6.8h1.9a1.351,1.351,0,0,0-.1-2.7H10.2V1.4A1.236,1.236,0,0,0,8.9,0,1.347,1.347,0,0,0,7.6,1.4v.8H1.3A1.324,1.324,0,0,0,0,3.5,1.43,1.43,0,0,0,1.4,4.9H12a16.323,16.323,0,0,1-3.1,5.2,18.723,18.723,0,0,1-2-2.9,1.206,1.206,0,0,0-2.3.6.749.749,0,0,0,.1.5,19.916,19.916,0,0,0,2.4,3.3L2.5,16.1a1.284,1.284,0,0,0-.4,1,.975.975,0,0,0,.4.9,1.222,1.222,0,0,0,.9.4,1.086,1.086,0,0,0,.9-.4l4.5-4.5,2,2a1.492,1.492,0,0,0,2.2-.2C13.1,15.3,13.1,15.2,13.2,15.1Z"/>
</svg>
